<?xml version="1.0" standalone="no"?>
<!DOCTYPE svg PUBLIC "-//W3C//DTD SVG 20010904//EN"
 "http://www.w3.org/TR/2001/REC-SVG-20010904/DTD/svg10.dtd">
<svg version="1.0" xmlns="http://www.w3.org/2000/svg"
 width="941.000000pt" height="941.000000pt" viewBox="0 0 941.000000 941.000000"
 preserveAspectRatio="xMidYMid meet">
<metadata>
Created by potrace 1.14, written by Peter Selinger 2001-2017
</metadata>
<g transform="translate(0.000000,941.000000) scale(0.100000,-0.100000)"
fill="#000000" stroke="none">
<path d="M4657 8964 c-1 -1 -65 -4 -142 -8 -77 -3 -160 -9 -185 -13 -25 -4
-62 -7 -82 -7 -21 -1 -38 -4 -38 -7 0 -3 -6 -6 -12 -6 -24 -1 -87 -11 -105
-17 -10 -3 -29 -7 -43 -10 -14 -3 -65 -16 -115 -30 -49 -14 -91 -26 -92 -26
-8 -2 -48 -17 -122 -47 -109 -45 -233 -111 -317 -169 -67 -47 -182 -147 -198
-173 -4 -7 -17 -22 -27 -32 -11 -11 -19 -23 -19 -29 0 -5 -4 -10 -9 -10 -5 0
-14 -13 -21 -30 -7 -16 -16 -30 -20 -30 -9 0 -36 -61 -32 -72 1 -5 -2 -8 -7
-8 -8 0 -49 -115 -59 -165 -6 -32 -10 -50 -12 -50 -4 0 -9 -95 -9 -170 -1
-115 2 -155 8 -155 3 0 7 -10 7 -22 3 -47 19 -128 34 -163 11 -27 23 -59 24
-65 1 -3 5 -11 9 -17 5 -7 6 -13 3 -13 -2 0 15 -36 40 -80 24 -44 44 -85 44
-90 0 -6 3 -10 8 -10 4 0 18 -17 31 -38 14 -20 30 -41 35 -47 6 -5 23 -27 39
-47 47 -64 107 -127 273 -293 163 -162 222 -217 437 -407 39 -35 94 -84 122
-109 27 -25 72 -66 99 -90 27 -24 83 -77 124 -116 42 -40 77 -73 79 -73 2 0
234 -234 327 -330 21 -23 37 -43 34 -45 -2 -3 -42 -12 -89 -20 -79 -14 -106
-19 -154 -29 -233 -48 -607 -183 -767 -278 -27 -15 -48 -25 -48 -23 0 3 -25
-11 -55 -30 -30 -19 -56 -35 -59 -35 -18 0 -336 -229 -336 -242 0 -5 -5 -8
-11 -8 -6 0 -16 -6 -23 -12 -7 -7 -48 -44 -91 -83 -96 -85 -172 -162 -234
-235 -25 -30 -55 -63 -65 -73 -10 -9 -15 -17 -11 -17 4 0 -2 -8 -13 -19 -12
-10 -22 -23 -22 -30 0 -6 -3 -11 -7 -11 -5 0 -21 -20 -36 -45 -16 -25 -34 -45
-40 -45 -5 0 -8 -3 -4 -6 3 -4 -5 -21 -18 -39 -14 -17 -25 -37 -25 -43 0 -7
-3 -12 -8 -12 -8 0 -23 -26 -42 -72 -7 -16 -16 -28 -21 -28 -5 0 -8 -4 -6 -8
3 -10 -45 -105 -58 -114 -5 -4 -7 -8 -2 -8 4 0 -4 -21 -17 -47 -14 -25 -23
-50 -20 -55 3 -4 1 -8 -4 -8 -6 0 -13 -16 -16 -35 -4 -19 -11 -35 -16 -35 -6
0 -9 -3 -9 -7 1 -5 0 -10 -1 -13 -2 -5 -7 -29 -13 -53 -1 -6 -5 -16 -8 -22 -4
-5 -10 -23 -14 -40 -5 -16 -9 -32 -10 -35 -12 -39 -28 -99 -31 -115 -2 -11 -9
-45 -16 -75 -6 -30 -13 -63 -14 -72 -1 -10 -2 -19 -4 -20 -1 -2 -3 -16 -5 -33
-2 -16 -6 -48 -9 -70 -10 -66 -17 -154 -21 -265 -2 -58 -4 -107 -5 -110 -2 -3
-2 -9 -1 -13 1 -5 4 -70 7 -145 2 -75 7 -159 9 -187 3 -27 6 -66 8 -86 2 -19
6 -39 9 -45 2 -5 4 -24 3 -41 0 -18 3 -33 8 -33 4 0 6 -4 3 -8 -3 -4 0 -28 5
-53 6 -24 12 -58 14 -75 3 -17 9 -44 15 -59 6 -15 9 -30 6 -32 -2 -3 3 -21 11
-41 8 -20 15 -38 14 -39 0 -2 -1 -4 0 -5 0 -2 2 -10 4 -18 2 -8 10 -34 19 -57
8 -24 13 -43 9 -43 -3 0 0 -7 7 -15 7 -8 9 -15 5 -15 -4 0 -2 -7 5 -15 7 -8 9
-15 4 -15 -5 0 -3 -4 3 -8 7 -4 14 -17 16 -27 2 -11 9 -31 15 -45 13 -32 24
-64 22 -69 -1 -2 2 -7 7 -10 4 -3 28 -46 53 -96 24 -49 48 -91 52 -93 4 -2 8
-8 8 -13 0 -6 18 -37 40 -70 22 -33 40 -62 40 -65 0 -4 26 -37 48 -59 6 -8 12
-17 12 -20 0 -7 86 -112 124 -151 12 -12 28 -30 37 -40 72 -86 359 -324 389
-324 5 0 10 -3 10 -7 0 -8 62 -46 69 -43 2 1 7 -3 10 -8 22 -35 395 -199 486
-213 6 -1 20 -5 33 -10 12 -5 33 -11 45 -13 12 -3 33 -8 47 -11 28 -7 131 -25
170 -31 113 -16 170 -19 345 -19 177 1 285 6 351 19 12 3 39 7 60 10 132 21
330 79 473 138 105 43 274 128 279 141 2 4 8 7 13 7 9 0 206 126 219 140 3 3
36 30 75 60 180 142 403 371 540 555 16 22 33 41 37 43 4 2 8 10 8 18 0 8 4
14 8 14 4 0 25 29 47 65 22 36 43 65 48 65 4 0 7 4 7 9 0 5 19 40 42 77 55 91
158 297 158 317 0 8 4 17 9 19 7 3 78 189 86 228 2 8 4 16 5 18 2 1 3 5 4 10
2 4 8 27 16 52 7 25 14 52 15 60 1 8 5 25 9 37 7 21 12 44 22 91 6 32 12 64
18 92 3 14 8 48 11 75 3 28 8 64 10 80 3 17 7 60 9 97 3 37 7 72 11 78 3 5 1
10 -5 10 -6 0 -8 5 -4 12 10 15 12 258 3 258 -4 0 -3 16 1 34 4 19 5 37 3 40
-3 3 -7 25 -9 50 -11 129 -11 131 -29 231 -3 17 -8 41 -10 55 -2 14 -7 36 -10
50 -3 14 -8 40 -10 58 -3 18 -10 43 -17 55 -6 12 -11 23 -10 25 1 1 2 3 1 5 0
1 -3 13 -6 27 -2 14 -6 30 -7 35 -1 6 -15 48 -31 95 -16 47 -28 88 -27 93 1 4
-3 7 -10 7 -6 0 -9 3 -5 6 3 4 0 19 -8 34 -8 15 -11 30 -8 34 4 3 1 6 -5 6 -7
0 -12 7 -12 15 0 9 -9 32 -19 53 -10 20 -19 40 -20 44 -1 5 -10 24 -21 43 -11
20 -20 42 -20 49 0 8 -3 16 -7 18 -5 2 -21 29 -37 61 -15 31 -32 57 -36 57 -3
0 -7 6 -7 13 0 12 -68 133 -83 147 -3 3 -11 17 -19 33 -8 15 -18 27 -23 27 -4
0 -8 6 -8 13 0 7 -13 28 -30 47 -16 19 -29 40 -30 47 0 6 -3 13 -8 15 -4 2
-32 35 -62 73 -90 114 -202 239 -289 319 -19 17 -41 38 -50 47 -9 8 -50 44
-91 80 -41 35 -80 69 -86 74 -33 29 -104 86 -244 195 -85 67 -162 127 -170
133 -8 7 -27 20 -41 29 -14 9 -33 23 -40 30 -8 7 -37 29 -64 47 -28 19 -52 38
-55 41 -3 3 -52 39 -110 80 -58 41 -112 80 -120 87 -15 12 -52 38 -265 184
-66 46 -121 86 -123 91 -2 4 -8 8 -13 8 -7 0 -103 66 -367 252 -18 13 -39 29
-47 36 -7 6 -18 12 -24 12 -6 0 -11 3 -11 8 0 4 -18 18 -40 32 -22 14 -40 28
-40 32 0 5 -4 8 -10 8 -8 0 -176 122 -210 153 -8 7 -33 27 -55 43 -22 16 -45
34 -51 39 -6 6 -26 21 -44 35 -35 27 -46 36 -134 112 -102 90 -152 145 -219
241 -26 37 -45 67 -42 67 3 0 -2 12 -12 27 -9 14 -18 33 -19 41 -2 8 -6 18
-11 21 -4 3 -9 15 -11 26 -3 24 -10 50 -13 50 -12 0 -20 252 -8 283 5 12 11
34 13 49 11 60 72 159 141 228 90 90 105 101 195 148 41 21 81 44 88 49 6 6
12 8 12 5 0 -4 19 2 43 12 36 15 107 35 212 57 81 17 330 23 435 10 46 -5 100
-17 145 -30 6 -1 28 -8 50 -14 22 -6 64 -23 93 -37 28 -14 55 -25 59 -25 3 0
21 -11 39 -25 18 -14 36 -25 39 -25 4 0 17 -8 30 -17 12 -10 33 -25 45 -33 12
-8 28 -20 34 -25 6 -6 29 -24 51 -40 82 -62 214 -190 535 -522 313 -324 531
-408 766 -297 104 49 225 193 250 297 2 9 7 27 10 40 9 29 9 234 0 272 -27
118 -95 242 -182 330 -46 46 -168 145 -180 145 -4 0 -15 6 -23 14 -21 18 -178
97 -261 132 -136 56 -370 129 -479 149 -14 3 -37 7 -51 10 -63 13 -205 36
-245 40 -195 21 -546 39 -558 29z m450 -3670 c39 -42 89 -96 110 -121 21 -25
52 -62 68 -82 17 -20 46 -56 65 -81 19 -25 43 -54 52 -64 10 -11 18 -26 18
-33 0 -7 4 -13 8 -13 10 0 142 -195 142 -210 0 -5 4 -10 8 -10 4 0 19 -22 33
-50 13 -27 27 -50 32 -50 4 0 7 -6 7 -12 0 -7 9 -24 20 -38 11 -14 20 -33 20
-42 0 -10 5 -18 10 -18 6 0 10 -6 10 -14 0 -8 7 -22 16 -30 8 -9 13 -16 9 -16
-3 0 2 -15 12 -32 9 -18 17 -35 18 -38 0 -3 12 -27 26 -55 14 -27 27 -54 29
-60 8 -27 14 -43 31 -81 11 -22 19 -47 19 -55 0 -8 4 -19 8 -24 8 -10 70 -196
77 -232 2 -10 4 -19 5 -20 3 -3 3 -3 15 -58 4 -22 9 -44 11 -50 2 -5 5 -20 8
-33 3 -13 7 -31 10 -40 3 -9 8 -33 10 -52 3 -19 7 -46 10 -60 21 -111 28 -166
42 -330 9 -114 9 -420 0 -550 -12 -156 -14 -185 -16 -185 -2 0 -10 -76 -13
-112 0 -13 -3 -23 -6 -23 -4 0 -7 -15 -7 -33 -1 -17 -4 -42 -7 -53 -3 -12 -8
-37 -11 -55 -3 -19 -17 -77 -31 -129 -14 -52 -27 -102 -30 -110 -2 -8 -4 -16
-5 -17 -2 -2 -3 -6 -4 -10 -8 -36 -51 -149 -58 -154 -5 -3 -9 -9 -8 -13 2 -8
-41 -119 -49 -126 -3 -3 -24 -39 -45 -80 -22 -41 -46 -81 -53 -88 -7 -7 -13
-17 -13 -22 0 -14 -118 -168 -138 -179 -9 -6 -13 -11 -7 -11 13 0 -167 -170
-181 -170 -7 0 -14 -4 -16 -8 -13 -32 -232 -144 -323 -166 -5 -1 -19 -5 -30
-9 -85 -27 -274 -38 -405 -23 -93 11 -230 55 -332 108 -54 27 -98 54 -98 59 0
5 -6 9 -13 9 -8 0 -25 10 -38 21 -13 12 -40 33 -59 48 -44 33 -197 186 -230
231 -14 18 -35 46 -47 61 -13 15 -23 30 -23 33 0 4 -8 16 -18 27 -11 10 -25
32 -33 47 -8 15 -22 36 -31 46 -10 11 -18 25 -18 32 0 7 -6 19 -13 26 -7 7
-14 15 -14 18 -3 14 -29 66 -36 71 -5 3 -8 8 -7 10 2 5 -11 37 -36 94 -10 22
-18 42 -19 45 -1 3 -5 13 -8 23 -4 9 -10 25 -14 35 -3 9 -7 19 -8 22 -18 57
-39 127 -41 133 -1 4 -2 8 -4 10 -1 1 -3 11 -5 21 -2 11 -7 31 -11 45 -4 14
-6 30 -5 35 1 4 -4 14 -10 22 -6 8 -9 14 -6 14 3 0 -1 26 -8 57 -7 32 -16 76
-19 98 -3 22 -8 51 -10 65 -10 54 -24 185 -30 276 -2 28 -7 57 -11 64 -6 9 -4
11 5 5 10 -6 11 -4 4 6 -10 15 -13 579 -4 579 3 0 6 21 7 48 0 26 4 74 8 107
3 33 8 74 10 90 1 17 4 30 5 30 1 0 3 16 5 35 2 19 4 35 5 35 1 0 9 41 15 85
1 14 4 25 5 25 1 0 4 12 14 65 2 14 5 25 6 25 1 0 3 7 5 15 1 8 8 35 15 60 7
25 14 52 15 60 2 8 4 16 5 18 2 1 4 7 5 12 1 6 3 11 5 13 2 3 11 40 12 55 1 6
5 12 10 12 4 0 7 3 6 8 -1 4 4 20 10 35 7 16 12 32 12 36 0 4 9 25 19 47 11
21 17 42 14 46 -2 5 0 8 5 8 9 0 25 37 23 53 -1 4 3 7 8 7 8 0 24 37 22 53 -1
4 4 7 9 7 6 0 10 7 10 15 0 8 5 15 12 15 6 0 9 3 5 6 -3 4 7 26 23 50 17 23
30 45 30 49 0 3 9 15 20 27 11 12 20 28 20 35 0 8 5 11 10 8 6 -3 10 0 10 7 0
8 12 27 28 44 66 75 127 147 130 155 2 5 7 9 12 9 5 0 28 18 52 41 23 22 70
60 103 85 33 24 66 49 74 56 47 39 253 145 371 191 131 51 397 123 465 126 12
1 47 -28 92 -75z"/>
</g>
</svg>
